HIERARCHY
ROOT hip
{
  OFFSET 0 0 0
  CHANNELS 6 Xposition Yposition Zposition Zrotation Yrotation Xrotation
  JOINT abdomen
  {
    OFFSET 0 20.6881 -0.73152
    CHANNELS 3 Zrotation Xrotation Yrotation
    JOINT chest
    {
      OFFSET 0 11.7043 -0.48768
      CHANNELS 3 Zrotation Xrotation Yrotation
      JOINT neck
      {
        OFFSET 0 22.1894 -2.19456
        CHANNELS 3 Zrotation Xrotation Yrotation
        JOINT head
        {
          OFFSET -0.24384 7.07133 1.2192
          CHANNELS 3 Zrotation Xrotation Yrotation
          JOINT leftEye
          {
            OFFSET 4.14528 8.04674 8.04672
            CHANNELS 3 Zrotation Xrotation Yrotation
            End Site
            {
              OFFSET 1 0 0
            }
          }
          JOINT rightEye
          {
            OFFSET -3.6576 8.04674 8.04672
            CHANNELS 3 Zrotation Xrotation Yrotation
            End Site
            {
              OFFSET 1 0 0
            }
          }
        }
      }
      JOINT rCollar
      {
        OFFSET -2.68224 19.2634 -4.8768
        CHANNELS 3 Zrotation Xrotation Yrotation
        JOINT rShldr
        {
          OFFSET -8.77824 -1.95073 1.46304
          CHANNELS 3 Zrotation Xrotation Yrotation
          JOINT rForeArm
          {
            OFFSET -28.1742 -1.7115 0.48768
            CHANNELS 3 Zrotation Xrotation Yrotation
            JOINT rHand
            {
              OFFSET -22.5879 0.773209 7.07136
              CHANNELS 3 Zrotation Xrotation Yrotation
              JOINT rThumb1
              {
                OFFSET -1.2192 -0.487915 3.41376
                CHANNELS 3 Zrotation Xrotation Yrotation
                JOINT rThumb2
                {
                  OFFSET -3.37035 -0.52449 3.41376
                  CHANNELS 3 Zrotation Xrotation Yrotation
                  End Site
                  {
                    OFFSET -1.78271 -1.18214 1.43049
                  }
                }
              }
              JOINT rIndex1
              {
                OFFSET -7.75947 0.938293 5.60832
                CHANNELS 3 Zrotation Xrotation Yrotation
                JOINT rIndex2
                {
                  OFFSET -2.54057 -0.884171 1.56538
                  CHANNELS 3 Zrotation Xrotation Yrotation
                  End Site
                  {
                    OFFSET -1.62519 -0.234802 1.16502
                  }
                }
              }
              JOINT rMid1
              {
                OFFSET -8.24714 1.18213 3.41376
                CHANNELS 3 Zrotation Xrotation Yrotation
                JOINT rMid2
                {
                  OFFSET -3.10165 -0.590103 1.0647
                  CHANNELS 3 Zrotation Xrotation Yrotation
                  End Site
                  {
                    OFFSET -2.48547 -0.328903 0.83742
                  }
                }
              }
              JOINT rRing1
              {
                OFFSET -8.82822 0.546677 1.51678
                CHANNELS 3 Zrotation Xrotation Yrotation
                JOINT rRing2
                {
                  OFFSET -2.60934 -0.819778 -0.0198488
                  CHANNELS 3 Zrotation Xrotation Yrotation
                  End Site
                  {
                    OFFSET -2.33842 -0.294052 0.168128
                  }
                }
              }
              JOINT rPinky1
              {
                OFFSET -8.27202 -0.0477905 -0.4584
                CHANNELS 3 Zrotation Xrotation Yrotation
                JOINT rPinky2
                {
                  OFFSET -1.82734 -0.647385 -0.700984
                  CHANNELS 3 Zrotation Xrotation Yrotation
                  End Site
                  {
                    OFFSET -1.69225 -0.51767 -0.607171
                  }
                }
              }
            }
          }
        }
      }
      JOINT lCollar
      {
        OFFSET 2.68224 19.2634 -4.8768
        CHANNELS 3 Zrotation Xrotation Yrotation
        JOINT lShldr
        {
          OFFSET 8.77824 -1.95073 1.46304
          CHANNELS 3 Zrotation Xrotation Yrotation
          JOINT lForeArm
          {
            OFFSET 28.1742 -1.7115 0.48768
            CHANNELS 3 Zrotation Xrotation Yrotation
            JOINT lHand
            {
              OFFSET 22.5879 0.773209 7.07136
              CHANNELS 3 Zrotation Xrotation Yrotation
              JOINT lThumb1
              {
                OFFSET 1.2192 -0.487915 3.41376
                CHANNELS 3 Zrotation Xrotation Yrotation
                JOINT lThumb2
                {
                  OFFSET 3.37035 -0.52449 3.41376
                  CHANNELS 3 Zrotation Xrotation Yrotation
                  End Site
                  {
                    OFFSET 1.78271 -1.18214 1.43049
                  }
                }
              }
              JOINT lIndex1
              {
                OFFSET 7.75947 0.938293 5.60832
                CHANNELS 3 Zrotation Xrotation Yrotation
                JOINT lIndex2
                {
                  OFFSET 2.54057 -0.884171 1.56538
                  CHANNELS 3 Zrotation Xrotation Yrotation
                  End Site
                  {
                    OFFSET 1.62519 -0.234802 1.16502
                  }
                }
              }
              JOINT lMid1
              {
                OFFSET 8.24714 1.18213 3.41376
                CHANNELS 3 Zrotation Xrotation Yrotation
                JOINT lMid2
                {
                  OFFSET 3.10165 -0.590103 1.0647
                  CHANNELS 3 Zrotation Xrotation Yrotation
                  End Site
                  {
                    OFFSET 2.48547 -0.328903 0.83742
                  }
                }
              }
              JOINT lRing1
              {
                OFFSET 8.82822 0.546677 1.51678
                CHANNELS 3 Zrotation Xrotation Yrotation
                JOINT lRing2
                {
                  OFFSET 2.60934 -0.819778 -0.0198488
                  CHANNELS 3 Zrotation Xrotation Yrotation
                  End Site
                  {
                    OFFSET 2.33842 -0.294052 0.168128
                  }
                }
              }
              JOINT lPinky1
              {
                OFFSET 8.27202 -0.0477905 -0.4584
                CHANNELS 3 Zrotation Xrotation Yrotation
                JOINT lPinky2
                {
                  OFFSET 1.82734 -0.647385 -0.700984
                  CHANNELS 3 Zrotation Xrotation Yrotation
                  End Site
                  {
                    OFFSET 1.69225 -0.51767 -0.607171
                  }
                }
              }
            }
          }
        }
      }
    }
  }
  JOINT rButtock
  {
    OFFSET -8.77824 4.35084 1.2192
    CHANNELS 3 Zrotation Xrotation Yrotation
    JOINT rThigh
    {
      OFFSET 0 -1.70687 -2.19456
      CHANNELS 3 Zrotation Xrotation Yrotation
      JOINT rShin
      {
        OFFSET 0 -36.8199 0.73152
        CHANNELS 3 Zrotation Xrotation Yrotation
        JOINT rFoot
        {
          OFFSET 0.73152 -45.1104 -5.12064
          CHANNELS 3 Zrotation Xrotation Yrotation
          End Site
          {
            OFFSET -1.1221 -3.69964 12.103
          }
        }
      }
    }
  }
  JOINT lButtock
  {
    OFFSET 8.77824 4.35084 1.2192
    CHANNELS 3 Zrotation Xrotation Yrotation
    JOINT lThigh
    {
      OFFSET 0 -1.70687 -2.19456
      CHANNELS 3 Zrotation Xrotation Yrotation
      JOINT lShin
      {
        OFFSET 0 -36.8199 0.73152
        CHANNELS 3 Zrotation Xrotation Yrotation
        JOINT lFoot
        {
          OFFSET -0.73152 -45.1104 -5.12064
          CHANNELS 3 Zrotation Xrotation Yrotation
          End Site
          {
            OFFSET 1.1221 -3.69964 12.103
          }
        }
      }
    }
  }
}
MOTION
Frames:	6
Frame Time:	0.00833333
69.6491 78.5077 -117.782 0.0 0.0 0.0 0.0256065 -6.1923e-06 0.000728842 0.00706481 8.63061e-06 0.00122382 -4.40316e-16 -1.59028e-15 1.16475e-18 -1.32627e-15 -6.36111e-15 7.76503e-18 -0.0 0.0 0.0 -0.0 0.0 0.0 -2.00115e-16 3.88251e-19 1.98785e-16 -2.42152e-15 3.78933e-16 7.95139e-16 -8.11538e-14 2.44505e-14 3.18055e-15 -9.13639e-13 -2.51214e-14 -1.27222e-14 -2.15866e-12 -8.20519e-15 9.54166e-15 -3.73039e-12 -1.59028e-14 0.0 -2.15284e-12 -5.1684e-15 -1.27222e-14 7.73091 5.47488 0.417314 -2.15835e-12 -7.65321e-15 3.18055e-15 2.90554 0.965183 0.102902 -2.14911e-12 -7.7526e-15 5.56597e-15 10.2786 0.731801 0.0259123 -2.16457e-12 -6.36111e-15 1.59028e-14 2.22167 -0.733487 -0.20892 -1.97468e-16 5.82377e-19 -1.98785e-16 -7.12626e-15 1.86361e-16 -7.95139e-16 -8.0806e-14 -2.22639e-14 -6.36111e-15 -9.15372e-13 2.79044e-14 1.59028e-14 -2.15869e-12 8.69168e-15 9.54166e-15 -3.72602e-12 1.27222e-14 1.59028e-14 -2.16477e-12 1.15295e-14 1.27222e-14 -7.73091 5.47488 -0.417314 -2.1594e-12 9.34288e-15 3.18055e-15 -2.90554 0.965183 -0.102902 -2.17016e-12 8.84592e-15 5.56597e-15 -10.2786 0.731801 -0.0259123 -2.15642e-12 7.95139e-15 -3.18055e-15 -2.22167 -0.733487 0.20892 -2.03217e-16 0.0 -3.88251e-19 0.5123 -3.13364 -0.0420885 -0.00562802 0.1231 -0.0495524 -0.4928 3.00963 0.11736 2.03217e-16 0.0 3.88251e-19 -0.473325 -3.03453 0.0397104 0.00592198 -0.0564352 0.052175 0.492505 3.09005 -0.118956
70.2833 76.4296 -116.07 14.0424 -20.8423 -9.0453 -2.16012 5.52811 -0.860712 0.871184 -2.00484 -0.294705 -3.12733 -0.263286 -0.122596 2.40897 -2.10451 0.835403 -0.0 0.0 0.0 -0.0 0.0 0.0 -1.88772e-14 -1.1452e-14 2.36492e-13 21.4288 12.2351 -5.48535 -28.0267 -25.4269 13.291 0.143572 -8.42226 -1.13801 -1.3303e-09 -8.18484e-10 -5.72724e-10 -2.28764e-09 -1.54445e-09 -1.01978e-09 -1.33029e-09 -8.18478e-10 -5.72744e-10 7.73091 5.47488 0.417314 -1.3303e-09 -8.18482e-10 -5.7273e-10 2.90554 0.965183 0.102902 -1.33029e-09 -8.18485e-10 -5.72728e-10 10.2786 0.731801 0.0259123 -1.3303e-09 -8.18483e-10 -5.72719e-10 2.22167 -0.733487 -0.20892 -1.8956e-14 -1.14579e-14 2.36148e-13 -20.9667 9.88258 2.30004 -0.371911 16.8486 40.4195 -0.277113 -11.7283 1.52653 -7.32331e-10 1.97303e-09 3.80953e-10 -1.27719e-09 3.31376e-09 6.31775e-10 -7.32336e-10 1.97303e-09 3.80959e-10 -7.73091 5.47488 -0.417314 -7.32332e-10 1.97303e-09 3.8095e-10 -2.90554 0.965183 -0.102902 -7.32341e-10 1.97303e-09 3.8095e-10 -10.2786 0.731801 -0.0259123 -7.32328e-10 1.97302e-09 3.80943e-10 -2.22167 -0.733487 0.20892 -2.03217e-16 0.0 -3.88251e-19 0.921077 -16.0193 -3.07515 6.11392e-05 20.1413 0.223658 -0.763621 0.719916 -2.20624 2.03217e-16 0.0 3.88251e-19 0.177629 -8.15127 1.92691 -0.0508977 14.5134 -0.179902 0.371951 1.40068 -2.69555
70.108 76.5743 -113.594 14.7618 -21.1576 -9.1661 -4.35831 11.349 -1.77489 1.75465 -4.12462 -0.606473 -6.42746 -0.529227 -0.248279 5.0289 -4.32516 1.72558 -0.0 0.0 0.0 -0.0 0.0 0.0 -3.68135e-14 -2.08664e-14 5.04689e-13 46.8208 24.7988 -12.1144 -40.0778 -46.9489 37.6959 -0.0840109 -17.3083 -2.42491 -2.82156e-09 -1.74208e-09 -1.21784e-09 -4.852e-09 -3.28627e-09 -2.16836e-09 -2.82156e-09 -1.74207e-09 -1.21786e-09 7.73091 5.47488 0.417314 -2.82156e-09 -1.74207e-09 -1.21785e-09 2.90554 0.965183 0.102902 -2.82156e-09 -1.74208e-09 -1.21785e-09 10.2786 0.731801 0.0259123 -2.82157e-09 -1.74208e-09 -1.21784e-09 2.22167 -0.733487 -0.20892 -3.69814e-14 -2.08793e-14 5.04404e-13 -44.0631 20.2923 5.00647 -16.3162 7.78396 82.0439 0.167762 -24.0575 3.36309 -1.55976e-09 4.157e-09 7.98261e-10 -2.71976e-09 6.97896e-09 1.32277e-09 -1.55977e-09 4.15699e-09 7.9827e-10 -7.73091 5.47488 -0.417314 -1.55976e-09 4.157e-09 7.98261e-10 -2.90554 0.965183 -0.102902 -1.55977e-09 4.157e-09 7.9826e-10 -10.2786 0.731801 -0.0259123 -1.55976e-09 4.15699e-09 7.98254e-10 -2.22167 -0.733487 0.20892 -2.03217e-16 0.0 -3.88251e-19 -0.457076 -29.5579 -6.92216 -0.265377 41.624 0.657283 -1.26831 -1.73043 -4.74099 2.03217e-16 0.0 3.88251e-19 1.16238 -13.5099 3.95295 0.0311957 29.789 -0.47643 0.071603 -0.524077 -5.41662
69.6974 76.5908 -111.497 13.8429 -21.5576 -8.1398 -6.01468 16.569 -2.68307 2.537 -6.01391 -0.890925 -9.38537 -0.789845 -0.367818 7.4119 -6.30815 2.51978 -0.0 0.0 0.0 -0.0 0.0 0.0 -5.62315e-14 -3.43568e-14 7.09077e-13 72.5247 35.2054 -19.8163 -31.1909 -52.3868 74.1349 -0.662199 -25.2247 -3.73367 -3.98657e-09 -2.45543e-09 -1.71819e-09 -6.85546e-09 -4.63332e-09 -3.05934e-09 -3.98656e-09 -2.45542e-09 -1.71821e-09 7.73091 5.47488 0.417314 -3.98657e-09 -2.45543e-09 -1.7182e-09 2.90554 0.965183 0.102902 -3.98657e-09 -2.45544e-09 -1.7182e-09 10.2786 0.731801 0.0259123 -3.98658e-09 -2.45544e-09 -1.71819e-09 2.22167 -0.733487 -0.20892 -5.64729e-14 -3.43748e-14 7.08843e-13 -65.5731 29.442 7.81164 -22.3592 -22.5965 101.151 1.39387 -35.0735 5.4816 -2.19268e-09 5.91906e-09 1.14284e-09 -3.82413e-09 9.94125e-09 1.89529e-09 -2.19268e-09 5.91905e-09 1.14285e-09 -7.73091 5.47488 -0.417314 -2.19268e-09 5.91906e-09 1.14284e-09 -2.90554 0.965183 -0.102902 -2.19268e-09 5.91906e-09 1.14284e-09 -10.2786 0.731801 -0.0259123 -2.19267e-09 5.91906e-09 1.14284e-09 -2.22167 -0.733487 0.20892 -2.03217e-16 0.0 -3.88251e-19 -3.50701 -41.2571 -11.7189 -1.02893 60.1701 1.46576 -1.86179 -3.83032 -6.86801 2.03217e-16 0.0 3.88251e-19 2.53711 -18.3061 5.94486 0.298316 43.6501 -0.866323 -0.32367 -1.95492 -7.85127
69.384 76.8252 -109.138 13.8395 -21.7498 -7.9685 -6.6609 20.2995 -3.48986 3.11 -7.32756 -1.103 -11.4858 -1.03717 -0.471977 9.0709 -7.70217 3.06108 -0.0 0.0 0.0 -0.0 0.0 0.0 -7.93537e-14 -5.8037e-14 7.53941e-13 92.8439 41.5694 -27.0201 -26.122 -46.0331 95.6167 -1.32023 -30.7567 -4.79756 -4.33591e-09 -2.64321e-09 -1.85661e-09 -7.45668e-09 -4.99346e-09 -3.30629e-09 -4.33591e-09 -2.6432e-09 -1.85663e-09 7.73091 5.47488 0.417314 -4.33591e-09 -2.64321e-09 -1.85662e-09 2.90554 0.965183 0.102902 -4.33591e-09 -2.64322e-09 -1.85662e-09 10.2786 0.731801 0.0259123 -4.33592e-09 -2.64321e-09 -1.85661e-09 2.22167 -0.733487 -0.20892 -7.96295e-14 -5.80554e-14 7.53742e-13 -81.0575 35.6511 9.96594 -24.174 -49.1698 102.73 2.95306 -42.906 7.50577 -2.33929e-09 6.62636e-09 1.3056e-09 -4.08297e-09 1.11463e-08 2.1716e-09 -2.33929e-09 6.62635e-09 1.30561e-09 -7.73091 5.47488 -0.417314 -2.33929e-09 6.62636e-09 1.3056e-09 -2.90554 0.965183 -0.102902 -2.3393e-09 6.62636e-09 1.3056e-09 -10.2786 0.731801 -0.0259123 -2.33929e-09 6.62636e-09 1.3056e-09 -2.22167 -0.733487 0.20892 -2.03217e-16 0.0 -3.88251e-19 -6.73211 -48.8305 -16.5464 -2.28938 71.381 2.68729 -2.24324 -5.09215 -7.95048 2.03217e-16 0.0 3.88251e-19 4.1732 -21.76 7.64967 0.71082 53.9774 -1.31839 -0.574228 -2.18546 -9.55554
68.9648 77.2077 -106.757 13.732 -22.0425 -7.9602 -6.01112 21.9941 -4.13778 3.45277 -7.87283 -1.21807 -12.3925 -1.32026 -0.546663 9.61042 -8.27812 3.26558 -0.0 0.0 0.0 -0.0 0.0 0.0 -1.23776e-13 -1.12682e-13 5.41101e-13 101.793 43.4398 -30.8661 -26.1283 -42.2136 101.586 -1.66313 -33.0691 -5.29027 -3.39902e-09 -1.8802e-09 -1.38112e-09 -5.84778e-09 -3.58513e-09 -2.46284e-09 -3.39901e-09 -1.88018e-09 -1.38113e-09 7.73091 5.47488 0.417314 -3.39902e-09 -1.88019e-09 -1.38112e-09 2.90554 0.965183 0.102902 -3.39902e-09 -1.8802e-09 -1.38113e-09 10.2786 0.731801 0.0259123 -3.39903e-09 -1.8802e-09 -1.38112e-09 2.22167 -0.733487 -0.20892 -1.24026e-13 -1.12692e-13 5.40919e-13 -86.8691 37.8272 10.3531 -26.6937 -60.0161 99.532 3.91543 -46.5382 8.6586 -1.71199e-09 5.76245e-09 1.21392e-09 -2.9975e-09 9.74281e-09 2.03721e-09 -1.71199e-09 5.76244e-09 1.21393e-09 -7.73091 5.47488 -0.417314 -1.71199e-09 5.76245e-09 1.21392e-09 -2.90554 0.965183 -0.102902 -1.712e-09 5.76244e-09 1.21392e-09 -10.2786 0.731801 -0.0259123 -1.71198e-09 5.76244e-09 1.21392e-09 -2.22167 -0.733487 0.20892 -2.03217e-16 0.0 -3.88251e-19 -7.07976 -51.2185 -18.9394 -2.44265 72.2864 2.75893 -2.14 -5.33138 -7.43595 2.03217e-16 0.0 3.88251e-19 5.85152 -23.3901 8.863 1.05788 59.4715 -1.63631 -0.449601 -0.923629 -9.96199
